# xmcd
#
# Track frame offsets:
#	150
#	15540
#	32697
#	50744
#	66558
#	78641
#	96915
#	111271
#	128217
#	142500
#	153481
#	169158
#	182370
#	199418
#	220799
#	237690
#	251356
#	265537
#	284872
#	304416
#	321625
#
# Disc length: 4464 seconds
#
# Revision: 0
# Processed by: cddbd v1.5.2PL0 Copyright (c) Steve Scherf et al.
# Submitted via: audiograbber 1.83.01
#
DISCID=40116e15
DTITLE=Various Artist - NFS125
DYEAR=2008
DGENRE=Australian  Country
TTITLE0=Casey Watt - It's All Coming Back To Me Now
TTITLE1=The Noll Brothers - Man On A Mission
TTITLE2=Sharon Lane - Something You Said
TTITLE3=Lance Friend - The Condamine
TTITLE4=Kristy Cox - Destination Heartache
TTITLE5=Graham Rodger - A Saddle For A Throne
TTITLE6=Leanna Melmouth - Underneath The Radar
TTITLE7=Jason Kemp - Rivertown
TTITLE8=Tracey Davis and Bushfire - Horses and Harleys
TTITLE9=Kamahl and Greg Champion  - I Was A Mate Of Don Bradman
TTITLE10=Jaxonville - One More Reason
TTITLE11=David Delle-Vergin - The Devil's New Girllfriend
TTITLE12=Samantha Dann - Harper Valley PTA
TTITLE13=Lee Forster - Keep Safe On The Track
TTITLE14=Tracy Killen - Good Friends and Good Times
TTITLE15=Merilyn Steele - If I Were a Bird
TTITLE16=Wayne Law - Friend
TTITLE17=Christy Kirkpatrick and Lee Fielding - Reinvent The Wheel
TTITLE18=Barry K Chandler - I'm Proud Of What I Am 
TTITLE19=Shaza Leigh - His Little Shiralee
TTITLE20=Rose Carleo - Reach Out To Me
EXTD=
EXTT0=
EXTT1=
EXTT2=
EXTT3=
EXTT4=
EXTT5=
EXTT6=
EXTT7=
EXTT8=
EXTT9=
EXTT10=
EXTT11=
EXTT12=
EXTT13=
EXTT14=
EXTT15=
EXTT16=
EXTT17=
EXTT18=
EXTT19=
EXTT20=
PLAYORDER=
